# xmcd CD database file
#
# Track frame offsets:
#	150
#	13556
#	39296
#	52024
#	77771
#	91963
#	120042
#	146727
#	160107
#	188703
#	203148
#	220619
#	234256
#	260929
#	282643
#	307587
#
# Disc length: 4238 seconds
#
# Revision: 0
# Processed by: cddbd v1.5.2PL0 Copyright (c) Steve Scherf et al.
# Submitted via: CDex 1.70beta2
#
DISCID=cf108c10
DTITLE=Barrelhouse Jazzband - Highlights Live
DYEAR=2005
DGENRE=Jazz
TTITLE0=Sweet Mumtaz
TTITLE1=Sobbin' Blues
TTITLE2=Alligator Hop
TTITLE3=What You Want Me To Do
TTITLE4=Static Strut
TTITLE5=A Date With The Duke
TTITLE6=Skid Dat Di Dat
TTITLE7=Chasin' With Schorsch
TTITLE8=The Dirty Dozens
TTITLE9=Swingin' The Blues
TTITLE10=Tickle Toe
TTITLE11=Jumpin At The Woodside
TTITLE12=Saratoga Shout
TTITLE13=Blues For Jimmy Noone
TTITLE14=Get Out Of Here
TTITLE15=Canal Street Blues
EXTD=YEAR: 2005
EXTT0=
EXTT1=
EXTT2=
EXTT3=
EXTT4=
EXTT5=
EXTT6=
EXTT7=
EXTT8=
EXTT9=
EXTT10=
EXTT11=
EXTT12=
EXTT13=
EXTT14=
EXTT15=
PLAYORDER=
